{
  "accessors": [
    {
      "bufferView": 2,
      "componentType": 5126,
      "count": 65532,
      "max": [
        187.50364685058594,
        35.74747848510742,
        45.5648307800293
      ],
      "min": [
        -134.23292541503906,
        -287.7225646972656,
        -14.51845932006836
      ],
      "type": "VEC3"
    },
    {
      "bufferView": 2,
      "byteOffset": 786384,
      "componentType": 5126,
      "count": 65532,
      "max": [
        1.0,
        0.9999988079071045,
        1.0
      ],
      "min": [
        -0.9999999403953552,
        -0.9999996423721313,
        -1.0
      ],
      "type": "VEC3"
    },
    {
      "bufferView": 3,
      "componentType": 5126,
      "count": 65532,
      "max": [
        1.0,
        0.9999997615814209,
        0.9999997615814209,
        1.0
      ],
      "min": [
        -1.0,
        -1.0,
        -0.9999973177909851,
        -1.0
      ],
      "type": "VEC4"
    },
    {
      "bufferView": 1,
      "componentType": 5126,
      "count": 65532,
      "max": [
        0.9990839958190918,
        0.9749011993408203
      ],
      "min": [
        0.0005370441358536482,
        0.03892314434051514
      ],
      "type": "VEC2"
    },
    {
      "bufferView": 0,
      "componentType": 5125,
      "count": 368253,
      "type": "SCALAR"
    },
    {
      "bufferView": 2,
      "byteOffset": 1572768,
      "componentType": 5126,
      "count": 65532,
      "max": [
        190.60293579101563,
        41.59280014038086,
        104.27582550048828
      ],
      "min": [
        -138.98776245117188,
        -286.3454895019531,
        -13.372740745544434
      ],
      "type": "VEC3"
    },
    {
      "bufferView": 2,
      "byteOffset": 2359152,
      "componentType": 5126,
      "count": 65532,
      "max": [
        0.9999959468841553,
        0.9999997615814209,
        0.9999773502349854
      ],
      "min": [
        -0.9999999403953552,
        -1.0,
        -0.9999960660934448
      ],
      "type": "VEC3"
    },
    {
      "bufferView": 3,
      "byteOffset": 1048512,
      "componentType": 5126,
      "count": 65532,
      "max": [
        1.0,
        0.9953547120094299,
        0.9996935725212097,
        1.0
      ],
      "min": [
        -1.0,
        -0.9999999403953552,
        -0.9999703764915466,
        -1.0
      ],
      "type": "VEC4"
    },
    {
      "bufferView": 1,
      "byteOffset": 524256,
      "componentType": 5126,
      "count": 65532,
      "max": [
        0.9597471356391907,
        0.9997231960296631
      ],
      "min": [
        0.022467587143182755,
        0.038930654525756836
      ],
      "type": "VEC2"
    },
    {
      "bufferView": 0,
      "byteOffset": 1473012,
      "componentType": 5125,
      "count": 356898,
      "type": "SCALAR"
    },
    {
      "bufferView": 2,
      "byteOffset": 3145536,
      "componentType": 5126,
      "count": 33088,
      "max": [
        190.4088897705078,
        41.48920440673828,
        104.27582550048828
      ],
      "min": [
        -138.22706604003906,
        -287.7225646972656,
        -14.51845932006836
      ],
      "type": "VEC3"
    },
    {
      "bufferView": 2,
      "byteOffset": 3542592,
      "componentType": 5126,
      "count": 33088,
      "max": [
        1.0,
        1.0,
        1.0
      ],
      "min": [
        -1.0,
        -1.0,
        -1.0
      ],
      "type": "VEC3"
    },
    {
      "bufferView": 3,
      "byteOffset": 2097024,
      "componentType": 5126,
      "count": 33088,
      "max": [
        1.0,
        1.0,
        1.0,
        1.0
      ],
      "min": [
        -1.0,
        -1.0,
        -0.9998162984848022,
        -1.0
      ],
      "type": "VEC4"
    },
    {
      "bufferView": 1,
      "byteOffset": 1048512,
      "componentType": 5126,
      "count": 33088,
      "max": [
        0.9997231960296631,
        0.9997231960296631
      ],
      "min": [
        0.0011410913430154324,
        0.038962721824645996
      ],
      "type": "VEC2"
    },
    {
      "bufferView": 0,
      "byteOffset": 2900604,
      "componentType": 5125,
      "count": 160929,
      "type": "SCALAR"
    }
  ],
  "asset": {
    "extras": {
      "author": "Noonckat (https://sketchfab.com/noonckat)",
      "license": "SKETCHFAB Standard (https://sketchfab.com/licenses)",
      "source": "https://sketchfab.com/3d-models/pizza-box-5715d9cfc61742418202865ed6e6e434",
      "title": "Pizza Box"
    },
    "generator": "Sketchfab-15.32.0",
    "version": "2.0"
  },
  "bufferViews": [
    {
      "buffer": 0,
      "byteLength": 3544320,
      "name": "floatBufferViews",
      "target": 34963
    },
    {
      "buffer": 0,
      "byteLength": 1313216,
      "byteOffset": 3544320,
      "byteStride": 8,
      "name": "floatBufferViews",
      "target": 34962
    },
    {
      "buffer": 0,
      "byteLength": 3939648,
      "byteOffset": 4857536,
      "byteStride": 12,
      "name": "floatBufferViews",
      "target": 34962
    },
    {
      "buffer": 0,
      "byteLength": 2626432,
      "byteOffset": 8797184,
      "byteStride": 16,
      "name": "floatBufferViews",
      "target": 34962
    }
  ],
  "buffers": [
    {
      "byteLength": 11423616,
      "uri": "scene.bin"
    }
  ],
  "extensionsUsed": [
    "KHR_materials_clearcoat"
  ],
  "images": [
    {
      "uri": "textures/Scene_-_Root_baseColor.png"
    },
    {
      "uri": "textures/Scene_-_Root_metallicRoughness.png"
    },
    {
      "uri": "textures/Scene_-_Root_normal.png"
    }
  ],
  "materials": [
    {
      "doubleSided": true,
      "extensions": {
        "KHR_materials_clearcoat": {
          "clearcoatFactor": 1.0,
          "clearcoatNormalTexture": {
            "index": 2
          },
          "clearcoatRoughnessFactor": 1.0,
          "clearcoatRoughnessTexture": {
            "index": 1
          }
        }
      },
      "name": "Scene_-_Root",
      "normalTexture": {
        "index": 2
      },
      "pbrMetallicRoughness": {
        "baseColorTexture": {
          "index": 0
        },
        "metallicRoughnessTexture": {
          "index": 1
        },
        "roughnessFactor": 0.565335056259219
      }
    }
  ],
  "meshes": [
    {
      "name": "pizza_box__0",
      "primitives": [
        {
          "attributes": {
            "NORMAL": 1,
            "POSITION": 0,
            "TANGENT": 2,
            "TEXCOORD_0": 3
          },
          "indices": 4,
          "material": 0,
          "mode": 4
        }
      ]
    },
    {
      "name": "pizza_box__0",
      "primitives": [
        {
          "attributes": {
            "NORMAL": 6,
            "POSITION": 5,
            "TANGENT": 7,
            "TEXCOORD_0": 8
          },
          "indices": 9,
          "material": 0,
          "mode": 4
        }
      ]
    },
    {
      "name": "pizza_box__0",
      "primitives": [
        {
          "attributes": {
            "NORMAL": 11,
            "POSITION": 10,
            "TANGENT": 12,
            "TEXCOORD_0": 13
          },
          "indices": 14,
          "material": 0,
          "mode": 4
        }
      ]
    }
  ],
  "nodes": [
    {
      "children": [
        1
      ],
      "matrix": [
        1.0,
        0.0,
        0.0,
        0.0,
        0.0,
        2.220446049250313e-16,
        -1.0,
        0.0,
        0.0,
        1.0,
        2.220446049250313e-16,
        0.0,
        0.0,
        0.0,
        0.0,
        1.0
      ],
      "name": "Sketchfab_model"
    },
    {
      "children": [
        2
      ],
      "matrix": [
        0.009999999776482582,
        0.0,
        0.0,
        0.0,
        0.0,
        0.0,
        0.009999999776482582,
        0.0,
        0.0,
        -0.009999999776482582,
        0.0,
        0.0,
        0.0,
        0.0,
        0.0,
        1.0
      ],
      "name": "pizza box.fbx"
    },
    {
      "children": [
        3
      ],
      "name": "RootNode"
    },
    {
      "children": [
        4,
        5,
        6
      ],
      "matrix": [
        1.0,
        0.0,
        0.0,
        0.0,
        0.0,
        1.0,
        0.0,
        0.0,
        0.0,
        0.0,
        1.0,
        0.0,
        -25.688026428222656,
        -41.46906661987305,
        -12.366838455200195,
        1.0
      ],
      "name": "pizza_box"
    },
    {
      "mesh": 0,
      "name": "pizza_box__0"
    },
    {
      "mesh": 1,
      "name": "pizza_box__0"
    },
    {
      "mesh": 2,
      "name": "pizza_box__0"
    }
  ],
  "samplers": [
    {
      "magFilter": 9729,
      "minFilter": 9987,
      "wrapS": 10497,
      "wrapT": 10497
    }
  ],
  "scene": 0,
  "scenes": [
    {
      "name": "Sketchfab_Scene",
      "nodes": [
        0
      ]
    }
  ],
  "textures": [
    {
      "sampler": 0,
      "source": 0
    },
    {
      "sampler": 0,
      "source": 1
    },
    {
      "sampler": 0,
      "source": 2
    }
  ]
}
